<!DOCTYPE svg PUBLIC "-//W3C//DTD SVG 1.1//EN" "http://www.w3.org/Graphics/SVG/1.1/DTD/svg11.dtd">
<!-- Uploaded to: SVG Repo, www.svgrepo.com, Transformed by: SVG Repo Mixer Tools -->
<svg width="800px" height="800px" viewBox="-51.2 -51.2 614.40 614.40" xmlns="http://www.w3.org/2000/svg" xmlns:xlink="http://www.w3.org/1999/xlink" aria-hidden="true" role="img" class="iconify iconify--fxemoji" preserveAspectRatio="xMidYMid meet" fill="#2b3a65" stroke="#2b3a65">
<g id="SVGRepo_bgCarrier" stroke-width="0" transform="translate(0,0), scale(1)">
<rect x="-51.2" y="-51.2" width="614.40" height="614.40" rx="307.2" fill="#f3ae3c" strokewidth="0"/>
</g>
<g id="SVGRepo_tracerCarrier" stroke-linecap="round" stroke-linejoin="round" stroke="#CCCCCC" stroke-width="13.312000000000001"/>
<g id="SVGRepo_iconCarrier">
<path fill="#263b68" d="M379.063 148.114c0 89.948-99.942 83.84-99.942 146.026v.336c0 7.174-5.815 12.989-12.989 12.989h-54.53c-7.174 0-12.989-5.815-12.989-12.989v-3.668c0-96.055 87.727-89.947 87.727-134.921c0-19.433-14.436-31.093-38.311-31.093c-19.423 0-39.271 8.493-57.314 25.851c-4.624 4.448-11.854 4.729-16.907.776l-35.862-28.05c-6.044-4.727-6.745-13.685-1.402-19.193c29.94-30.865 68.846-49.343 120.369-49.343c81.618.001 122.15 43.864 122.15 93.279zm-88.838 260.403c0 27.762-22.209 50.526-50.525 50.526c-27.762 0-50.526-22.764-50.526-50.526c0-27.761 22.764-50.525 50.526-50.525c28.317 0 50.525 22.764 50.525 50.525z"/>
</g>
</svg>